<?xml version="1.0" encoding="UTF-8" standalone="no"?>
<!DOCTYPE svg PUBLIC "-//W3C//DTD SVG 1.1//EN" "http://www.w3.org/Graphics/SVG/1.1/DTD/svg11.dtd">
<svg version="1.1" xmlns="http://www.w3.org/2000/svg" xmlns:xlink="http://www.w3.org/1999/xlink" preserveAspectRatio="xMidYMid meet" viewBox="0 0 640 640" width="640" height="640"><defs><path d="M341.77 45.83L353.08 47.45L364.25 49.5L375.25 51.99L386.09 54.89L396.76 58.22L407.25 61.94L417.54 66.06L427.62 70.56L437.5 75.44L447.16 80.69L456.58 86.3L465.77 92.25L474.71 98.55L483.39 105.17L491.81 112.12L499.95 119.38L507.81 126.94L515.37 134.8L522.63 142.94L529.57 151.35L536.2 160.04L542.49 168.98L548.45 178.16L554.05 187.59L559.3 197.25L564.18 207.12L568.69 217.21L572.81 227.5L576.53 237.99L579.85 248.65L582.76 259.49L585.25 270.5L587.3 281.67L588.91 292.98L590.08 304.43L590.78 316.01L591.02 327.7L590.78 339.4L590.08 350.98L588.91 362.43L587.3 373.74L585.25 384.9L582.76 395.91L579.85 406.75L576.53 417.42L572.81 427.9L568.69 438.2L564.18 448.28L559.3 458.16L554.05 467.82L548.45 477.24L542.49 486.43L536.2 495.37L529.57 504.05L522.63 512.47L515.37 520.61L507.81 528.46L499.95 536.03L491.81 543.29L483.39 550.23L474.71 556.86L465.77 563.15L456.58 569.11L447.16 574.71L437.5 579.96L427.62 584.84L417.54 589.35L407.25 593.47L396.76 597.19L386.09 600.51L375.25 603.42L364.25 605.91L353.08 607.96L341.77 609.57L330.32 610.74L318.74 611.44L307.04 611.68L295.35 611.44L283.77 610.74L272.32 609.57L261.01 607.96L249.84 605.91L238.84 603.42L227.99 600.51L217.33 597.19L206.84 593.47L196.55 589.35L186.46 584.84L176.59 579.96L166.93 574.71L157.5 569.11L148.32 563.15L139.38 556.86L130.7 550.23L122.28 543.29L114.14 536.03L106.28 528.46L98.72 520.61L91.46 512.47L84.52 504.05L77.89 495.37L71.6 486.43L65.64 477.24L60.03 467.82L54.79 458.16L49.9 448.28L45.4 438.2L41.28 427.9L37.56 417.42L34.24 406.75L31.33 395.91L28.84 384.9L26.79 373.74L25.18 362.43L24.01 350.98L23.31 339.4L23.07 327.7L23.31 316.01L24.01 304.43L25.18 292.98L26.79 281.67L28.84 270.5L31.33 259.49L34.24 248.65L37.56 237.99L41.28 227.5L45.4 217.21L49.9 207.12L54.79 197.25L60.03 187.59L65.64 178.16L71.6 168.98L77.89 160.04L84.52 151.35L91.46 142.94L98.72 134.8L106.28 126.94L114.14 119.38L122.28 112.12L130.7 105.17L139.38 98.55L148.32 92.25L157.5 86.3L166.93 80.69L176.59 75.44L186.46 70.56L196.55 66.06L206.84 61.94L217.33 58.22L227.99 54.89L238.84 51.99L249.84 49.5L261.01 47.45L272.32 45.83L283.77 44.67L295.35 43.97L307.04 43.73L318.74 43.97L330.32 44.67L330.32 44.67L341.77 45.83ZM279.03 92.43L269.45 93.8L259.99 95.54L250.67 97.65L241.48 100.11L232.44 102.92L223.56 106.08L214.85 109.57L206.3 113.38L197.93 117.52L189.75 121.96L181.77 126.71L173.99 131.76L166.41 137.09L159.06 142.7L151.93 148.58L145.03 154.73L138.38 161.14L131.97 167.79L125.82 174.69L119.94 181.82L114.33 189.17L109 196.75L103.95 204.53L99.2 212.51L94.76 220.69L90.62 229.06L86.81 237.61L83.32 246.32L80.16 255.2L77.35 264.24L74.89 273.43L72.78 282.75L71.04 292.21L69.67 301.79L68.69 311.49L68.09 321.3L67.89 331.2L68.09 341.11L68.69 350.92L69.67 360.62L71.04 370.2L72.78 379.66L74.89 388.98L77.35 398.17L80.16 407.21L83.32 416.09L86.81 424.8L90.62 433.35L94.76 441.72L99.2 449.89L103.95 457.88L109 465.66L114.33 473.24L119.94 480.59L125.82 487.72L131.97 494.62L138.38 501.27L145.03 507.68L151.93 513.83L159.06 519.71L166.41 525.32L173.99 530.65L181.77 535.7L189.75 540.45L197.09 544.44L194.66 540.34L192.27 535.95L190.05 531.45L188 526.86L186.12 522.18L184.43 517.41L182.92 512.56L181.6 507.62L180.46 502.62L179.53 497.54L178.8 492.39L178.27 487.18L177.95 481.91L177.84 476.59L177.95 471.27L178.27 466L178.8 460.79L179.53 455.64L180.46 450.56L181.6 445.55L182.92 440.62L184.43 435.77L186.12 431L188 426.32L190.05 421.73L192.27 417.23L194.66 412.84L197.21 408.55L199.92 404.37L202.78 400.3L205.79 396.35L208.96 392.52L212.26 388.82L215.7 385.24L219.27 381.8L222.98 378.5L226.81 375.34L230.76 372.33L234.82 369.46L239 366.75L243.29 364.2L247.69 361.81L252.18 359.59L256.77 357.54L261.45 355.67L266.22 353.97L271.08 352.46L276.01 351.14L281.02 350.01L286.1 349.07L291.24 348.34L296.45 347.81L301.72 347.49L307.04 347.38L312.37 347.49L317.63 347.81L322.84 348.34L327.99 349.07L333.07 350.01L338.08 351.14L343.01 352.46L347.87 353.97L352.64 355.67L357.32 357.54L361.91 359.59L366.4 361.81L370.79 364.2L375.08 366.75L379.26 369.46L383.33 372.33L387.28 375.34L391.11 378.5L394.82 381.8L398.39 385.24L401.83 388.82L405.13 392.52L408.29 396.35L411.31 400.3L414.17 404.37L416.88 408.55L419.43 412.84L421.82 417.23L424.04 421.73L426.09 426.32L427.97 431L429.66 435.77L431.17 440.62L432.49 445.55L433.62 450.56L434.56 455.64L435.29 460.79L435.82 466L436.14 471.27L436.25 476.59L436.14 481.91L435.82 487.18L435.29 492.39L434.56 497.54L433.62 502.62L432.49 507.62L431.17 512.56L429.66 517.41L427.97 522.18L426.09 526.86L424.04 531.45L421.82 535.95L419.43 540.34L416.88 544.63L415.65 546.53L418.96 544.89L427.13 540.45L435.12 535.7L442.9 530.65L450.48 525.32L457.83 519.71L464.96 513.83L471.86 507.68L478.51 501.27L484.92 494.62L491.07 487.72L496.95 480.59L502.56 473.24L507.89 465.66L512.94 457.88L517.69 449.89L522.13 441.72L526.27 433.35L530.08 424.8L533.57 416.09L536.73 407.21L539.54 398.17L542 388.98L544.11 379.66L545.85 370.2L547.22 360.62L548.2 350.92L548.8 341.11L549 331.2L548.8 321.3L548.2 311.49L547.22 301.79L545.85 292.21L544.11 282.75L542 273.43L539.54 264.24L536.73 255.2L533.57 246.32L530.08 237.61L526.27 229.06L522.13 220.69L517.69 212.51L512.94 204.53L507.89 196.75L502.56 189.17L496.95 181.82L491.07 174.69L484.92 167.79L478.51 161.14L471.86 154.73L464.96 148.58L457.83 142.7L450.48 137.09L442.9 131.76L435.12 126.71L427.13 121.96L418.96 117.52L410.59 113.38L402.04 109.57L393.33 106.08L384.45 102.92L375.41 100.11L366.22 97.65L356.9 95.54L347.44 93.8L337.86 92.43L328.16 91.45L318.35 90.85L308.44 90.65L298.54 90.85L288.73 91.45L288.73 91.45L279.03 92.43ZM312.7 207.66L314.54 207.93L316.35 208.26L318.15 208.66L319.91 209.14L321.65 209.68L323.35 210.28L325.03 210.95L326.67 211.69L328.28 212.48L329.85 213.34L331.38 214.25L332.88 215.22L334.33 216.24L335.75 217.32L337.12 218.45L338.44 219.63L339.72 220.86L340.95 222.14L342.13 223.47L343.26 224.84L344.34 226.25L345.37 227.71L346.34 229.2L347.25 230.74L348.1 232.31L348.9 233.91L349.63 235.56L350.3 237.23L350.91 238.94L351.45 240.67L351.92 242.44L352.32 244.23L352.66 246.05L352.92 247.89L353.11 249.75L353.23 251.64L353.26 253.54L353.23 255.44L353.11 257.33L352.92 259.19L352.66 261.03L352.32 262.85L351.92 264.64L351.45 266.41L350.91 268.14L350.3 269.85L349.63 271.52L348.9 273.17L348.1 274.77L347.25 276.35L346.34 277.88L345.37 279.38L344.34 280.83L343.26 282.24L342.13 283.61L340.95 284.94L339.72 286.22L338.44 287.45L337.12 288.63L335.75 289.76L334.33 290.84L332.88 291.86L331.38 292.83L329.85 293.74L328.28 294.6L326.67 295.39L325.03 296.13L323.35 296.8L321.65 297.4L319.91 297.94L318.15 298.42L316.35 298.82L314.54 299.16L312.7 299.42L310.83 299.61L308.95 299.72L307.04 299.76L305.14 299.72L303.26 299.61L301.39 299.42L299.55 299.16L297.73 298.82L295.94 298.42L294.18 297.94L292.44 297.4L290.74 296.8L289.06 296.13L287.42 295.39L285.81 294.6L284.24 293.74L282.7 292.83L281.21 291.86L279.75 290.84L278.34 289.76L276.97 288.63L275.65 287.45L274.37 286.22L273.14 284.94L271.96 283.61L270.83 282.24L269.75 280.83L268.72 279.38L267.75 277.88L266.84 276.35L265.99 274.77L265.19 273.17L264.46 271.52L263.79 269.85L263.18 268.14L262.64 266.41L262.17 264.64L261.76 262.85L261.43 261.03L261.17 259.19L260.98 257.33L260.86 255.44L260.82 253.54L260.86 251.64L260.98 249.75L261.17 247.89L261.43 246.05L261.76 244.23L262.17 242.44L262.64 240.67L263.18 238.94L263.79 237.23L264.46 235.56L265.19 233.91L265.99 232.31L266.84 230.74L267.75 229.2L268.72 227.71L269.75 226.25L270.83 224.84L271.96 223.47L273.14 222.14L274.37 220.86L275.65 219.63L276.97 218.45L278.34 217.32L279.75 216.24L281.21 215.22L282.7 214.25L284.24 213.34L285.81 212.48L287.42 211.69L289.06 210.95L290.74 210.28L292.44 209.68L294.18 209.14L295.94 208.66L297.73 208.26L299.55 207.93L301.39 207.66L303.26 207.47L305.14 207.36L307.04 207.32L308.95 207.36L310.83 207.47L310.83 207.47L312.7 207.66Z" id="liZk57PCe"></path></defs><g><g><g><use xlink:href="#liZk57PCe" opacity="1" fill="#2872ec" fill-opacity="1"></use></g></g></g></svg>