<?xml version="1.0" encoding="UTF-8" standalone="no"?>
<!DOCTYPE svg PUBLIC "-//W3C//DTD SVG 1.1//EN" "http://www.w3.org/Graphics/SVG/1.1/DTD/svg11.dtd">
<svg version="1.1" xmlns="http://www.w3.org/2000/svg" xmlns:xlink="http://www.w3.org/1999/xlink" preserveAspectRatio="xMidYMid meet" viewBox="0 0 640 640" width="640" height="640"><defs><path d="M601.37 215.67L601.58 215.69L601.8 215.72L602.01 215.76L602.22 215.81L602.42 215.86L602.62 215.93L602.82 216L603.02 216.08L603.21 216.16L603.4 216.25L603.58 216.35L603.76 216.46L603.93 216.57L604.1 216.69L604.26 216.82L604.42 216.95L604.58 217.08L604.73 217.23L604.87 217.38L605.01 217.53L605.14 217.69L605.26 217.85L605.38 218.02L605.5 218.2L605.6 218.38L605.7 218.56L605.79 218.75L605.88 218.94L605.96 219.13L606.03 219.33L606.09 219.53L606.14 219.74L606.19 219.95L606.23 220.16L606.26 220.37L606.28 220.59L606.3 220.81L606.3 221.03L606.3 228.7L606.3 228.72L606.29 402.68L606.3 402.81L606.3 403.03L606.3 410.7L606.3 410.92L606.28 411.14L606.26 411.35L606.23 411.57L606.19 411.78L606.14 411.99L606.09 412.19L606.03 412.4L605.96 412.59L605.88 412.79L605.79 412.98L605.7 413.17L605.6 413.35L605.5 413.53L605.38 413.7L605.26 413.87L605.14 414.04L605.01 414.2L604.87 414.35L604.73 414.5L604.58 414.64L604.42 414.78L604.26 414.91L604.1 415.04L603.93 415.15L603.76 415.27L603.58 415.37L603.4 415.47L603.21 415.57L603.02 415.65L602.82 415.73L602.62 415.8L602.42 415.86L602.22 415.92L602.01 415.96L601.8 416L601.58 416.03L601.37 416.05L601.15 416.07L600.93 416.07L35.6 416.07L35.57 416.07L35.38 416.07L35.16 416.07L34.94 416.05L34.72 416.03L34.51 416L34.3 415.96L34.09 415.92L33.88 415.86L33.68 415.8L33.48 415.73L33.29 415.65L33.1 415.56L32.91 415.47L32.73 415.37L32.55 415.27L32.37 415.15L32.21 415.03L32.04 414.91L31.88 414.78L31.73 414.64L31.58 414.5L31.44 414.35L31.3 414.19L31.17 414.04L31.04 413.87L30.92 413.7L30.81 413.53L30.7 413.35L30.6 413.17L30.51 412.98L30.43 412.79L30.35 412.59L30.28 412.4L30.22 412.19L30.16 411.99L30.11 411.78L30.08 411.57L30.04 411.35L30.02 411.14L30.01 410.92L30.01 410.7L30.02 221.42L30.02 221.19L30.04 220.98L30.06 220.76L30.09 220.54L30.13 220.33L30.17 220.12L30.23 219.92L30.29 219.72L30.36 219.52L30.44 219.32L30.53 219.13L30.62 218.95L30.72 218.76L30.73 218.73L30.82 218.56L30.92 218.38L31.03 218.2L31.14 218.02L31.26 217.85L31.38 217.69L31.52 217.53L31.65 217.38L31.8 217.23L31.94 217.08L32.1 216.95L32.26 216.82L32.42 216.69L32.59 216.57L32.77 216.46L32.94 216.35L33.13 216.25L33.31 216.16L33.5 216.08L33.7 216L33.9 215.93L34.1 215.86L34.31 215.81L34.51 215.76L34.72 215.72L34.94 215.69L35.16 215.67L35.38 215.66L35.6 215.65L600.93 215.65L601.15 215.66L601.37 215.67ZM48.43 397.65L587.87 397.65L587.88 234.07L48.44 234.07L48.43 397.65ZM154.42 240.65L154.64 240.67L154.85 240.7L155.07 240.74L155.27 240.79L155.48 240.84L155.68 240.9L155.88 240.97L156.08 241.05L156.27 241.14L156.45 241.23L156.64 241.33L156.81 241.43L156.99 241.55L157.16 241.67L157.32 241.79L157.48 241.92L157.64 242.06L157.78 242.2L157.93 242.35L158.06 242.51L158.2 242.67L158.32 242.83L158.44 243L158.55 243.17L158.66 243.35L158.76 243.53L158.85 243.72L158.94 243.91L159.01 244.11L159.08 244.31L159.15 244.51L159.2 244.71L159.25 244.92L159.29 245.13L159.32 245.35L159.34 245.56L159.35 245.78L159.36 246L159.36 253.67L159.35 253.9L159.34 254.11L159.32 254.33L159.29 254.55L159.25 254.76L159.2 254.97L159.15 255.17L159.08 255.37L159.01 255.57L158.94 255.77L158.85 255.96L158.76 256.14L158.66 256.33L158.55 256.51L158.44 256.68L158.32 256.85L158.2 257.01L158.06 257.17L157.93 257.33L157.78 257.47L157.64 257.62L157.48 257.76L157.32 257.89L157.16 258.01L156.99 258.13L156.81 258.24L156.64 258.35L156.45 258.45L156.27 258.54L156.08 258.63L155.88 258.7L155.68 258.78L155.48 258.84L155.27 258.89L155.07 258.94L154.85 258.98L154.64 259.01L154.42 259.03L154.2 259.04L153.98 259.05L90.57 259.05L90.57 309.76L90.57 309.97L90.57 373.41L153.98 373.41L154.2 373.41L154.42 373.42L154.64 373.45L154.85 373.48L155.07 373.51L155.27 373.56L155.48 373.62L155.68 373.68L155.88 373.75L156.08 373.83L156.27 373.91L156.45 374.01L156.64 374.1L156.81 374.21L156.99 374.32L157.16 374.44L157.32 374.57L157.48 374.7L157.64 374.84L157.78 374.98L157.93 375.13L158.06 375.28L158.2 375.44L158.32 375.61L158.44 375.78L158.55 375.95L158.66 376.13L158.76 376.31L158.85 376.5L158.94 376.69L159.01 376.88L159.08 377.08L159.15 377.28L159.2 377.49L159.25 377.7L159.29 377.91L159.32 378.12L159.34 378.34L159.35 378.56L159.36 378.78L159.36 386.45L159.35 386.67L159.34 386.89L159.32 387.11L159.29 387.32L159.25 387.53L159.2 387.74L159.15 387.95L159.08 388.15L159.01 388.35L158.94 388.54L158.85 388.73L158.76 388.92L158.66 389.1L158.55 389.28L158.44 389.46L158.32 389.62L158.2 389.79L158.06 389.95L157.93 390.1L157.78 390.25L157.64 390.39L157.48 390.53L157.32 390.66L157.16 390.79L156.99 390.91L156.81 391.02L156.64 391.13L156.45 391.23L156.27 391.32L156.08 391.4L155.88 391.48L155.68 391.55L155.48 391.61L155.27 391.67L155.07 391.72L154.85 391.75L154.64 391.79L154.42 391.81L154.2 391.82L153.98 391.83L77.52 391.83L77.3 391.82L77.08 391.81L76.86 391.79L76.65 391.75L76.44 391.72L76.23 391.67L76.03 391.61L75.82 391.55L75.62 391.48L75.43 391.4L75.24 391.32L75.05 391.23L74.87 391.13L74.69 391.02L74.52 390.91L74.35 390.79L74.18 390.66L74.02 390.53L73.87 390.39L73.72 390.25L73.58 390.1L73.44 389.95L73.31 389.79L73.18 389.62L73.06 389.46L72.95 389.28L72.85 389.1L72.75 388.92L72.65 388.73L72.57 388.54L72.49 388.35L72.42 388.15L72.36 387.95L72.3 387.74L72.26 387.53L72.22 387.32L72.19 387.11L72.16 386.89L72.15 386.67L72.15 386.66L72.15 386.45L72.15 378.78L72.15 378.76L72.15 322.68L72.15 322.47L72.15 253.9L72.15 253.9L72.15 253.67L72.15 246L72.15 245.78L72.16 245.56L72.19 245.35L72.22 245.13L72.26 244.92L72.3 244.71L72.36 244.51L72.42 244.31L72.49 244.11L72.57 243.91L72.65 243.72L72.75 243.53L72.85 243.35L72.95 243.17L73.06 243L73.18 242.83L73.31 242.67L73.44 242.51L73.58 242.35L73.72 242.2L73.87 242.06L74.02 241.92L74.18 241.79L74.35 241.67L74.52 241.55L74.69 241.43L74.87 241.33L75.05 241.23L75.24 241.14L75.43 241.05L75.62 240.97L75.82 240.9L76.03 240.84L76.23 240.79L76.44 240.74L76.65 240.7L76.86 240.67L77.08 240.65L77.3 240.63L77.52 240.63L153.98 240.63L154.2 240.63L154.42 240.65ZM475.67 240.63L475.68 240.63L475.9 240.65L476.12 240.67L476.33 240.7L476.54 240.74L476.75 240.79L476.96 240.84L477.16 240.9L477.36 240.97L477.55 241.05L477.74 241.14L477.93 241.23L478.11 241.33L478.29 241.44L478.47 241.55L478.64 241.67L478.8 241.79L478.96 241.92L479.11 242.06L479.26 242.2L479.41 242.35L479.54 242.51L479.67 242.67L479.8 242.83L479.92 243L480.03 243.17L480.14 243.35L480.24 243.54L480.33 243.72L480.41 243.91L480.49 244.11L480.56 244.31L480.63 244.51L480.68 244.71L480.73 244.92L480.77 245.13L480.8 245.35L480.82 245.56L480.83 245.78L480.84 246.01L480.83 322.47L480.83 322.69L480.81 322.91L480.79 323.12L480.76 323.34L480.72 323.55L480.68 323.76L480.62 323.96L480.56 324.17L480.49 324.36L480.41 324.56L480.32 324.75L480.23 324.94L480.13 325.12L480.03 325.3L479.91 325.47L479.79 325.64L479.67 325.81L479.54 325.96L479.4 326.12L479.26 326.27L479.24 326.28L479.09 326.42L478.94 326.56L478.78 326.69L478.62 326.82L478.45 326.94L478.27 327.05L478.09 327.16L477.91 327.26L477.72 327.35L477.53 327.43L477.34 327.51L477.14 327.58L476.94 327.64L476.73 327.7L476.52 327.75L476.31 327.79L476.1 327.82L475.88 327.84L475.66 327.85L475.44 327.86L422.91 327.86L462.22 367.16L462.37 367.32L462.51 367.49L462.65 367.65L462.78 367.83L462.9 368L463.02 368.18L463.12 368.37L463.22 368.56L463.31 368.75L463.4 368.94L463.47 369.13L463.54 369.33L463.6 369.53L463.65 369.73L463.69 369.94L463.73 370.14L463.75 370.34L463.77 370.55L463.79 370.76L463.79 370.96L463.79 371.17L463.77 371.37L463.75 371.58L463.73 371.78L463.69 371.99L463.65 372.19L463.6 372.39L463.54 372.59L463.47 372.79L463.4 372.98L463.31 373.18L463.22 373.37L463.12 373.55L463.02 373.74L462.9 373.92L462.78 374.1L462.65 374.27L462.51 374.44L462.37 374.6L462.22 374.76L456.79 380.19L456.63 380.34L456.47 380.48L456.3 380.62L456.13 380.75L455.95 380.87L455.77 380.99L455.58 381.09L455.4 381.19L455.21 381.28L455.01 381.37L454.82 381.44L454.62 381.51L454.42 381.57L454.22 381.62L454.02 381.66L453.81 381.7L453.61 381.72L453.4 381.74L453.2 381.76L452.99 381.76L452.79 381.76L452.58 381.74L452.37 381.72L452.17 381.7L451.97 381.66L451.76 381.62L451.56 381.57L451.36 381.51L451.16 381.44L450.97 381.37L450.78 381.28L450.59 381.19L450.4 381.09L450.21 380.99L450.03 380.87L449.86 380.75L449.68 380.62L449.52 380.48L449.35 380.34L449.19 380.19L412.03 343.02L412.02 386.44L412.02 386.66L412.01 386.88L411.98 387.09L411.95 387.31L411.92 387.52L411.87 387.73L411.81 387.93L411.75 388.13L411.68 388.33L411.6 388.53L411.52 388.72L411.42 388.91L411.32 389.09L411.22 389.27L411.11 389.44L410.99 389.61L410.86 389.77L410.73 389.93L410.59 390.09L410.45 390.24L410.3 390.38L410.15 390.52L409.99 390.65L409.82 390.77L409.65 390.89L409.48 391.01L409.3 391.11L409.12 391.21L408.93 391.3L408.74 391.39L408.55 391.47L408.35 391.54L408.15 391.6L407.94 391.65L407.73 391.7L407.52 391.74L407.31 391.77L407.09 391.79L406.87 391.81L406.65 391.81L398.98 391.81L398.76 391.81L398.54 391.79L398.32 391.77L398.11 391.74L397.9 391.7L397.69 391.65L397.48 391.6L397.28 391.54L397.08 391.47L396.89 391.39L396.7 391.3L396.51 391.21L396.33 391.11L396.15 391L395.97 390.89L395.81 390.77L395.64 390.65L395.48 390.52L395.33 390.38L395.18 390.24L395.04 390.09L394.9 389.93L394.77 389.77L394.64 389.61L394.52 389.44L394.41 389.27L394.3 389.09L394.2 388.9L394.11 388.72L394.03 388.53L393.95 388.33L393.88 388.13L393.82 387.93L393.76 387.73L393.71 387.52L393.68 387.31L393.64 387.09L393.62 386.88L393.61 386.66L393.6 386.43L393.61 323.11L393.59 322.94L393.57 322.73L393.55 322.53L393.55 322.32L393.55 322.11L393.57 321.91L393.59 321.7L393.6 321.56L393.6 314.81L393.61 314.79L393.61 253.9L393.61 253.9L393.6 253.67L393.6 246L393.61 245.78L393.62 245.56L393.64 245.35L393.68 245.13L393.71 244.92L393.76 244.71L393.82 244.51L393.88 244.31L393.95 244.11L394.03 243.91L394.11 243.72L394.2 243.53L394.3 243.35L394.41 243.17L394.52 243L394.64 242.83L394.77 242.67L394.9 242.51L395.04 242.35L395.18 242.2L395.33 242.06L395.48 241.92L395.64 241.79L395.81 241.67L395.97 241.55L396.15 241.43L396.33 241.33L396.51 241.23L396.7 241.14L396.89 241.05L397.08 240.97L397.28 240.9L397.48 240.84L397.69 240.79L397.9 240.74L398.11 240.7L398.32 240.67L398.54 240.65L398.76 240.63L398.98 240.63L475.44 240.63L475.66 240.63L475.67 240.63ZM268.19 304.6L268.41 304.62L268.62 304.64L268.84 304.67L269.05 304.71L269.26 304.76L269.46 304.81L269.66 304.87L269.86 304.94L270.06 305.02L270.25 305.11L270.44 305.2L270.62 305.3L270.8 305.4L270.97 305.52L271.14 305.64L271.3 305.76L271.46 305.89L271.62 306.03L271.77 306.17L271.91 306.32L272.05 306.48L272.18 306.64L272.3 306.8L272.42 306.97L272.54 307.14L272.64 307.32L272.74 307.5L272.83 307.69L272.92 307.88L273 308.08L273.07 308.28L273.13 308.48L273.18 308.68L273.23 308.89L273.27 309.1L273.3 309.32L273.32 309.53L273.34 309.75L273.34 309.97L273.34 386.44L273.33 386.66L273.32 386.88L273.3 387.09L273.26 387.31L273.23 387.52L273.18 387.73L273.12 387.93L273.06 388.13L272.99 388.33L272.91 388.53L272.83 388.72L272.74 388.91L272.64 389.09L272.53 389.27L272.42 389.44L272.3 389.61L272.17 389.77L272.04 389.93L271.9 390.09L271.76 390.24L271.61 390.38L271.46 390.52L271.3 390.65L271.13 390.77L270.96 390.89L270.79 391.01L270.61 391.11L270.43 391.21L270.24 391.3L270.05 391.39L269.86 391.47L269.66 391.54L269.46 391.6L269.25 391.65L269.04 391.7L268.83 391.74L268.62 391.77L268.4 391.79L268.18 391.81L267.96 391.81L260.29 391.81L260.07 391.81L259.85 391.79L259.63 391.77L259.42 391.74L259.21 391.7L259 391.65L258.79 391.6L258.59 391.54L258.39 391.47L258.2 391.39L258.01 391.3L257.82 391.21L257.64 391.11L257.46 391L257.29 390.89L257.12 390.77L256.95 390.65L256.79 390.52L256.64 390.38L256.49 390.24L256.35 390.09L256.21 389.93L256.08 389.77L255.95 389.61L255.83 389.44L255.72 389.27L255.61 389.09L255.52 388.9L255.42 388.72L255.34 388.53L255.26 388.33L255.19 388.13L255.13 387.93L255.07 387.73L255.02 387.52L254.99 387.31L254.96 387.09L254.93 386.88L254.92 386.66L254.92 386.43L254.92 309.97L254.93 309.75L254.94 309.53L254.96 309.32L254.99 309.1L255.03 308.89L255.08 308.68L255.13 308.48L255.19 308.27L255.27 308.08L255.34 307.88L255.43 307.69L255.52 307.5L255.62 307.32L255.73 307.14L255.84 306.97L255.96 306.8L256.08 306.63L256.21 306.48L256.35 306.32L256.5 306.17L256.64 306.03L256.8 305.89L256.96 305.76L257.12 305.64L257.29 305.52L257.46 305.4L257.64 305.3L257.83 305.2L258.01 305.11L258.2 305.02L258.4 304.94L258.6 304.87L258.8 304.81L259 304.75L259.21 304.71L259.42 304.67L259.64 304.64L259.86 304.62L260.08 304.6L260.3 304.6L267.97 304.6L268.19 304.6ZM245.59 240.63L245.61 240.63L245.83 240.65L246.05 240.67L246.26 240.7L246.47 240.74L246.68 240.79L246.88 240.84L247.09 240.9L247.29 240.97L247.48 241.05L247.67 241.14L247.86 241.23L248.04 241.33L248.22 241.44L248.39 241.55L248.56 241.67L248.73 241.79L248.89 241.92L249.04 242.06L249.19 242.2L249.33 242.35L249.47 242.51L249.6 242.67L249.73 242.83L249.85 243L249.96 243.17L250.06 243.35L250.16 243.54L250.26 243.72L250.34 243.91L250.42 244.11L250.49 244.31L250.55 244.51L250.61 244.71L250.65 244.92L250.69 245.13L250.72 245.35L250.75 245.56L250.76 245.78L250.76 246.01L250.76 322.47L250.75 322.69L250.74 322.91L250.72 323.12L250.69 323.34L250.65 323.55L250.6 323.76L250.55 323.96L250.48 324.17L250.41 324.36L250.34 324.56L250.25 324.75L250.16 324.94L250.06 325.12L249.95 325.3L249.84 325.47L249.72 325.64L249.6 325.81L249.46 325.96L249.33 326.12L249.18 326.27L249.17 326.28L249.02 326.42L248.87 326.56L248.71 326.69L248.54 326.82L248.37 326.94L248.2 327.05L248.02 327.16L247.84 327.26L247.65 327.35L247.46 327.43L247.26 327.51L247.07 327.58L246.86 327.64L246.66 327.7L246.45 327.75L246.24 327.79L246.03 327.82L245.81 327.84L245.59 327.85L245.37 327.86L192.84 327.86L232.14 367.16L232.3 367.32L232.44 367.49L232.58 367.65L232.71 367.83L232.83 368L232.94 368.18L233.05 368.37L233.15 368.56L233.24 368.75L233.32 368.94L233.4 369.13L233.46 369.33L233.52 369.53L233.57 369.73L233.62 369.94L233.65 370.14L233.68 370.34L233.7 370.55L233.71 370.76L233.72 370.96L233.71 371.17L233.7 371.37L233.68 371.58L233.65 371.78L233.62 371.99L233.57 372.19L233.52 372.39L233.46 372.59L233.4 372.79L233.32 372.98L233.24 373.18L233.15 373.37L233.05 373.55L232.94 373.74L232.83 373.92L232.71 374.1L232.58 374.27L232.44 374.44L232.3 374.6L232.14 374.76L226.72 380.19L226.56 380.34L226.4 380.48L226.23 380.62L226.05 380.75L225.88 380.87L225.7 380.99L225.51 381.09L225.32 381.19L225.13 381.28L224.94 381.37L224.75 381.44L224.55 381.51L224.35 381.57L224.15 381.62L223.94 381.66L223.74 381.7L223.54 381.72L223.33 381.74L223.12 381.76L222.92 381.76L222.71 381.76L222.51 381.74L222.3 381.72L222.1 381.7L221.89 381.66L221.69 381.62L221.49 381.57L221.29 381.51L221.09 381.44L220.9 381.37L220.7 381.28L220.51 381.19L220.33 381.09L220.14 380.99L219.96 380.87L219.78 380.75L219.61 380.62L219.44 380.48L219.28 380.34L219.12 380.19L181.95 343.02L181.95 386.44L181.95 386.66L181.93 386.88L181.91 387.09L181.88 387.31L181.84 387.52L181.79 387.73L181.74 387.93L181.68 388.13L181.61 388.33L181.53 388.53L181.44 388.72L181.35 388.91L181.25 389.09L181.15 389.27L181.03 389.44L180.91 389.61L180.79 389.77L180.66 389.93L180.52 390.09L180.38 390.24L180.23 390.38L180.07 390.52L179.91 390.65L179.75 390.77L179.58 390.89L179.41 391.01L179.23 391.11L179.05 391.21L178.86 391.3L178.67 391.39L178.47 391.47L178.27 391.54L178.07 391.6L177.87 391.65L177.66 391.7L177.45 391.74L177.23 391.77L177.02 391.79L176.8 391.81L176.58 391.81L168.91 391.81L168.68 391.81L168.47 391.79L168.25 391.77L168.03 391.74L167.82 391.7L167.61 391.65L167.41 391.6L167.21 391.54L167.01 391.47L166.81 391.39L166.62 391.3L166.44 391.21L166.25 391.11L166.07 391L165.9 390.89L165.73 390.77L165.57 390.65L165.41 390.52L165.25 390.38L165.11 390.24L164.96 390.09L164.82 389.93L164.69 389.77L164.57 389.61L164.45 389.44L164.34 389.27L164.23 389.09L164.13 388.9L164.04 388.72L163.95 388.53L163.88 388.33L163.81 388.13L163.74 387.93L163.69 387.73L163.64 387.52L163.6 387.31L163.57 387.09L163.55 386.88L163.54 386.66L163.53 386.43L163.54 323.11L163.51 322.94L163.49 322.73L163.48 322.53L163.48 322.32L163.48 322.11L163.49 321.91L163.51 321.7L163.53 321.56L163.53 314.81L163.53 314.79L163.54 253.9L163.54 253.9L163.53 253.67L163.53 246L163.54 245.78L163.55 245.56L163.57 245.35L163.6 245.13L163.64 244.92L163.69 244.71L163.74 244.51L163.81 244.31L163.88 244.11L163.95 243.91L164.04 243.72L164.13 243.53L164.23 243.35L164.34 243.17L164.45 243L164.57 242.83L164.69 242.67L164.83 242.51L164.96 242.35L165.11 242.2L165.25 242.06L165.41 241.92L165.57 241.79L165.73 241.67L165.9 241.55L166.08 241.43L166.25 241.33L166.44 241.23L166.62 241.14L166.81 241.05L167.01 240.97L167.21 240.9L167.41 240.84L167.61 240.79L167.82 240.74L168.03 240.7L168.25 240.67L168.47 240.65L168.69 240.63L168.91 240.63L245.37 240.63L245.59 240.63L245.59 240.63ZM382.67 240.63L382.69 240.63L382.91 240.65L383.12 240.67L383.34 240.7L383.55 240.74L383.76 240.79L383.96 240.84L384.16 240.9L384.36 240.97L384.56 241.05L384.75 241.14L384.93 241.23L385.12 241.33L385.3 241.44L385.47 241.55L385.64 241.67L385.8 241.79L385.96 241.92L386.12 242.06L386.27 242.2L386.41 242.35L386.55 242.51L386.68 242.67L386.8 242.83L386.92 243L387.03 243.17L387.14 243.35L387.24 243.54L387.33 243.72L387.42 243.91L387.5 244.11L387.57 244.31L387.63 244.51L387.68 244.71L387.73 244.92L387.77 245.13L387.8 245.35L387.82 245.56L387.84 245.78L387.84 246.01L387.84 309.76L387.84 309.97L387.83 386.44L387.83 386.66L387.82 386.88L387.79 387.09L387.76 387.31L387.73 387.52L387.68 387.73L387.62 387.93L387.56 388.13L387.49 388.33L387.41 388.53L387.33 388.72L387.23 388.91L387.14 389.09L387.03 389.27L386.92 389.44L386.8 389.61L386.67 389.77L386.54 389.93L386.4 390.09L386.26 390.24L386.11 390.38L385.96 390.52L385.8 390.65L385.63 390.77L385.46 390.89L385.29 391.01L385.11 391.11L384.93 391.21L384.74 391.3L384.55 391.39L384.36 391.47L384.16 391.54L383.96 391.6L383.75 391.65L383.54 391.7L383.33 391.74L383.12 391.77L382.9 391.79L382.68 391.81L382.46 391.81L374.79 391.81L374.57 391.81L374.35 391.79L374.13 391.77L373.92 391.74L373.71 391.7L373.5 391.65L373.29 391.6L373.09 391.54L372.89 391.47L372.7 391.39L372.51 391.3L372.32 391.21L372.14 391.11L371.96 391L371.78 390.89L371.62 390.77L371.45 390.65L371.29 390.52L371.14 390.38L370.99 390.24L370.85 390.09L370.71 389.93L370.58 389.77L370.45 389.61L370.33 389.44L370.22 389.27L370.11 389.09L370.01 388.9L369.92 388.72L369.84 388.53L369.76 388.33L369.69 388.13L369.63 387.93L369.57 387.73L369.52 387.52L369.49 387.31L369.45 387.09L369.43 386.88L369.42 386.66L369.41 386.43L369.42 327.32L319.03 327.32L319.03 386.44L319.02 386.66L319.01 386.88L318.99 387.09L318.96 387.31L318.92 387.52L318.87 387.73L318.82 387.93L318.75 388.13L318.68 388.33L318.6 388.53L318.52 388.72L318.43 388.91L318.33 389.09L318.22 389.27L318.11 389.44L317.99 389.61L317.86 389.77L317.73 389.93L317.6 390.09L317.45 390.24L317.3 390.38L317.15 390.52L316.99 390.65L316.83 390.77L316.66 390.89L316.48 391.01L316.3 391.11L316.12 391.21L315.93 391.3L315.74 391.39L315.55 391.47L315.35 391.54L315.15 391.6L314.94 391.65L314.73 391.7L314.52 391.74L314.31 391.77L314.09 391.79L313.87 391.81L313.65 391.81L305.98 391.81L305.76 391.81L305.54 391.79L305.33 391.77L305.11 391.74L304.9 391.7L304.69 391.65L304.49 391.6L304.28 391.54L304.09 391.47L303.89 391.39L303.7 391.3L303.51 391.21L303.33 391.11L303.15 391L302.98 390.89L302.81 390.77L302.64 390.65L302.48 390.52L302.33 390.38L302.18 390.24L302.04 390.09L301.9 389.93L301.77 389.77L301.64 389.61L301.53 389.44L301.41 389.27L301.31 389.09L301.21 388.9L301.12 388.72L301.03 388.53L300.95 388.33L300.88 388.13L300.82 387.93L300.76 387.73L300.72 387.52L300.68 387.31L300.65 387.09L300.63 386.88L300.61 386.66L300.61 386.43L300.61 322.68L300.61 322.47L300.61 321.95L300.61 321.94L300.61 314.27L300.61 314.25L300.61 253.9L300.61 253.9L300.61 253.67L300.61 246L300.61 245.78L300.63 245.56L300.65 245.35L300.68 245.13L300.72 244.92L300.76 244.71L300.82 244.51L300.88 244.31L300.95 244.11L301.03 243.91L301.12 243.72L301.21 243.53L301.31 243.35L301.41 243.17L301.53 243L301.64 242.83L301.77 242.67L301.9 242.51L302.04 242.35L302.18 242.2L302.33 242.06L302.48 241.92L302.64 241.79L302.81 241.67L302.98 241.55L303.15 241.43L303.33 241.33L303.51 241.23L303.7 241.14L303.89 241.05L304.09 240.97L304.28 240.9L304.49 240.84L304.69 240.79L304.9 240.74L305.11 240.7L305.33 240.67L305.54 240.65L305.76 240.63L305.98 240.63L382.44 240.63L382.67 240.63L382.67 240.63ZM566.88 240.65L567.1 240.67L567.31 240.7L567.52 240.74L567.73 240.79L567.94 240.84L568.14 240.9L568.34 240.97L568.53 241.05L568.72 241.14L568.91 241.23L569.09 241.33L569.27 241.43L569.45 241.55L569.62 241.67L569.78 241.79L569.94 241.92L570.09 242.06L570.24 242.2L570.39 242.35L570.52 242.51L570.65 242.67L570.78 242.83L570.9 243L571.01 243.17L571.12 243.35L571.22 243.53L571.31 243.72L571.39 243.91L571.47 244.11L571.54 244.31L571.61 244.51L571.66 244.71L571.71 244.92L571.75 245.13L571.78 245.35L571.8 245.56L571.81 245.78L571.82 246L571.82 253.67L571.81 253.9L571.8 254.11L571.78 254.33L571.75 254.55L571.71 254.76L571.66 254.97L571.61 255.17L571.54 255.37L571.47 255.57L571.39 255.77L571.31 255.96L571.22 256.14L571.12 256.33L571.01 256.51L570.9 256.68L570.78 256.85L570.65 257.01L570.52 257.17L570.39 257.33L570.24 257.47L570.09 257.62L569.94 257.76L569.78 257.89L569.62 258.01L569.45 258.13L569.27 258.24L569.09 258.35L568.91 258.45L568.72 258.54L568.53 258.63L568.34 258.7L568.14 258.78L567.94 258.84L567.73 258.89L567.52 258.94L567.31 258.98L567.1 259.01L566.88 259.03L566.66 259.04L566.44 259.05L536.03 259.05L536.03 309.76L536.03 309.97L536.02 386.44L536.02 386.66L536.01 386.88L535.98 387.09L535.95 387.31L535.92 387.52L535.87 387.73L535.81 387.93L535.75 388.13L535.68 388.33L535.6 388.53L535.52 388.72L535.42 388.91L535.32 389.09L535.22 389.27L535.11 389.44L534.99 389.61L534.86 389.77L534.73 389.93L534.59 390.09L534.45 390.24L534.3 390.38L534.15 390.52L533.99 390.65L533.82 390.77L533.65 390.89L533.48 391.01L533.3 391.11L533.12 391.21L532.93 391.3L532.74 391.39L532.55 391.47L532.35 391.54L532.15 391.6L531.94 391.65L531.73 391.7L531.52 391.74L531.31 391.77L531.09 391.79L530.87 391.81L530.65 391.81L522.98 391.81L522.76 391.81L522.54 391.79L522.32 391.77L522.11 391.74L521.9 391.7L521.69 391.65L521.48 391.6L521.28 391.54L521.08 391.47L520.89 391.39L520.7 391.3L520.51 391.21L520.33 391.11L520.15 391L519.97 390.89L519.81 390.77L519.64 390.65L519.48 390.52L519.33 390.38L519.18 390.24L519.04 390.09L518.9 389.93L518.77 389.77L518.64 389.61L518.52 389.44L518.41 389.27L518.3 389.09L518.2 388.9L518.11 388.72L518.03 388.53L517.95 388.33L517.88 388.13L517.82 387.93L517.76 387.73L517.71 387.52L517.68 387.31L517.64 387.09L517.62 386.88L517.61 386.66L517.6 386.43L517.61 322.68L517.6 322.47L517.61 259.05L489.98 259.05L489.76 259.04L489.54 259.03L489.32 259.01L489.11 258.98L488.9 258.94L488.69 258.89L488.48 258.84L488.28 258.78L488.08 258.7L487.89 258.63L487.7 258.54L487.51 258.45L487.33 258.35L487.15 258.24L486.97 258.13L486.81 258.01L486.64 257.89L486.48 257.76L486.33 257.62L486.18 257.47L486.04 257.33L485.9 257.17L485.77 257.01L485.64 256.85L485.52 256.68L485.41 256.51L485.3 256.33L485.2 256.14L485.11 255.96L485.03 255.77L484.95 255.57L484.88 255.37L484.82 255.17L484.76 254.97L484.71 254.76L484.68 254.55L484.64 254.33L484.62 254.11L484.61 253.9L484.6 253.67L484.6 246L484.61 245.78L484.62 245.56L484.64 245.35L484.68 245.13L484.71 244.92L484.76 244.71L484.82 244.51L484.88 244.31L484.95 244.11L485.03 243.91L485.11 243.72L485.2 243.53L485.3 243.35L485.41 243.17L485.52 243L485.64 242.83L485.77 242.67L485.9 242.51L486.04 242.35L486.18 242.2L486.33 242.06L486.48 241.92L486.64 241.79L486.81 241.67L486.97 241.55L487.15 241.43L487.33 241.33L487.51 241.23L487.7 241.14L487.89 241.05L488.08 240.97L488.28 240.9L488.48 240.84L488.69 240.79L488.9 240.74L489.11 240.7L489.32 240.67L489.54 240.65L489.76 240.63L489.98 240.63L566.44 240.63L566.66 240.63L566.88 240.65ZM181.95 309.44L232.34 309.44L232.34 259.05L181.95 259.05L181.95 309.44ZM412.03 309.44L462.41 309.44L462.42 259.05L412.03 259.05L412.03 309.44ZM319.03 308.9L369.42 308.9L369.42 259.05L319.03 259.05L319.03 308.9ZM272.21 279.73L272.37 279.77L272.52 279.84L272.66 279.92L272.79 280.01L272.91 280.12L273.02 280.23L273.11 280.36L273.19 280.5L273.25 280.65L273.3 280.81L273.33 280.97L273.34 281.14L273.34 296.65L273.33 296.82L273.3 296.99L273.25 297.14L273.19 297.29L273.11 297.43L273.02 297.56L272.91 297.68L272.79 297.79L272.66 297.88L272.52 297.96L272.37 298.02L272.21 298.07L272.05 298.1L271.88 298.11L256.37 298.11L256.2 298.1L256.04 298.07L255.88 298.02L255.73 297.96L255.59 297.88L255.46 297.79L255.34 297.68L255.24 297.56L255.14 297.43L255.06 297.29L255 297.14L254.95 296.99L254.93 296.82L254.92 296.65L254.92 281.14L254.93 280.97L254.95 280.81L255 280.65L255.06 280.5L255.14 280.36L255.24 280.23L255.34 280.12L255.46 280.01L255.59 279.92L255.73 279.84L255.88 279.77L256.04 279.73L256.2 279.7L256.37 279.69L271.88 279.69L272.05 279.7L272.21 279.73Z" id="cgKepods"></path></defs><g><g><g><use xlink:href="#cgKepods" opacity="1" fill="#ff7f00" fill-opacity="1"></use></g></g></g></svg>