<?xml version="1.0" encoding="UTF-8" standalone="no"?>
<!DOCTYPE svg PUBLIC "-//W3C//DTD SVG 1.1//EN" "http://www.w3.org/Graphics/SVG/1.1/DTD/svg11.dtd">
<svg version="1.1" xmlns="http://www.w3.org/2000/svg" xmlns:xlink="http://www.w3.org/1999/xlink" preserveAspectRatio="xMidYMid meet" viewBox="0 0 640 640" width="640" height="640"><defs><path d="M153.98 240.63C156.95 240.63 159.36 243.04 159.36 246C159.36 248.61 159.36 251.06 159.36 253.67C159.36 256.64 156.95 259.05 153.98 259.05C137.62 259.05 93.89 259.05 77.52 259.05C74.55 259.05 72.15 256.64 72.15 253.67C72.15 251.06 72.15 248.61 72.15 246C72.15 243.04 74.55 240.63 77.52 240.63C93.89 240.63 137.62 240.63 153.98 240.63Z" id="a4YwP3O0R"></path><path d="M90.57 322.47C90.57 325.44 88.16 327.84 85.19 327.84C82.58 327.84 80.13 327.84 77.52 327.84C74.55 327.84 72.15 325.43 72.15 322.47C72.15 306.1 72.15 262.37 72.15 246C72.15 243.04 74.56 240.63 77.53 240.63C80.14 240.63 82.59 240.63 85.2 240.63C88.17 240.63 90.57 243.04 90.57 246.01C90.57 262.37 90.57 306.1 90.57 322.47Z" id="f1UElyg7ru"></path><path d="M153.98 373.41C156.95 373.41 159.36 375.81 159.36 378.78C159.36 381.39 159.36 383.84 159.36 386.45C159.36 389.42 156.95 391.83 153.98 391.83C137.62 391.83 93.89 391.83 77.52 391.83C74.55 391.83 72.15 389.42 72.15 386.45C72.15 383.84 72.15 381.39 72.15 378.78C72.15 375.81 74.55 373.41 77.52 373.41C93.89 373.41 137.62 373.41 153.98 373.41Z" id="b6qLZSl0as"></path><path d="M90.57 386.44C90.57 389.4 88.16 391.81 85.19 391.81C82.58 391.81 80.13 391.81 77.52 391.81C74.55 391.81 72.15 389.4 72.15 386.43C72.15 370.07 72.15 326.34 72.15 309.97C72.15 307 74.56 304.6 77.53 304.6C80.14 304.6 82.59 304.6 85.2 304.6C88.17 304.6 90.57 307.01 90.57 309.97C90.57 326.34 90.57 370.07 90.57 386.44Z" id="as8V8gJNX"></path><path d="M181.95 322.47C181.95 325.44 179.54 327.84 176.58 327.84C173.97 327.84 171.52 327.84 168.91 327.84C165.94 327.84 163.53 325.43 163.53 322.47C163.53 306.1 163.54 262.37 163.54 246C163.54 243.04 165.94 240.63 168.91 240.63C171.52 240.63 173.97 240.63 176.58 240.63C179.55 240.63 181.96 243.04 181.96 246.01C181.95 262.37 181.95 306.1 181.95 322.47Z" id="a16KdMyCAB"></path><path d="M181.95 386.44C181.95 389.4 179.54 391.81 176.58 391.81C173.97 391.81 171.52 391.81 168.91 391.81C165.94 391.81 163.53 389.4 163.53 386.43C163.53 370.07 163.54 326.34 163.54 309.97C163.54 307 165.94 304.6 168.91 304.6C171.52 304.6 173.97 304.6 176.58 304.6C179.55 304.6 181.96 307.01 181.96 309.97C181.95 326.34 181.95 370.07 181.95 386.44Z" id="b2Vgyk5yLO"></path><path d="M245.37 240.63C248.34 240.63 250.74 243.04 250.74 246C250.74 248.61 250.74 251.06 250.74 253.67C250.74 256.64 248.34 259.05 245.37 259.05C229 259.05 185.27 259.05 168.91 259.05C165.94 259.05 163.53 256.64 163.53 253.67C163.53 251.06 163.53 248.61 163.53 246C163.53 243.04 165.94 240.63 168.91 240.63C185.27 240.63 229 240.63 245.37 240.63Z" id="c3bvf3EHlg"></path><path d="M250.76 322.47C250.76 325.44 248.35 327.84 245.38 327.84C242.77 327.84 240.32 327.84 237.71 327.84C234.74 327.84 232.34 325.43 232.34 322.47C232.34 306.1 232.34 262.37 232.34 246C232.34 243.04 234.75 240.63 237.72 240.63C240.33 240.63 242.78 240.63 245.39 240.63C248.36 240.63 250.76 243.04 250.76 246.01C250.76 262.37 250.76 306.1 250.76 322.47Z" id="a2IWqjZog3"></path><path d="M245.37 309.44C248.34 309.44 250.74 311.84 250.74 314.81C250.74 317.42 250.74 319.87 250.74 322.48C250.74 325.45 248.34 327.86 245.37 327.86C229 327.86 185.27 327.86 168.91 327.86C165.94 327.86 163.53 325.45 163.53 322.48C163.53 319.87 163.53 317.42 163.53 314.81C163.53 311.84 165.94 309.44 168.91 309.44C185.27 309.44 229 309.44 245.37 309.44Z" id="eP3r9QgYE"></path><path d="M232.14 367.16C234.24 369.26 234.24 372.66 232.14 374.76C230.3 376.61 228.56 378.34 226.72 380.19C224.62 382.28 221.22 382.28 219.12 380.19C207.54 368.61 176.62 337.69 165.05 326.12C162.95 324.02 162.95 320.62 165.05 318.52C166.9 316.67 168.63 314.94 170.47 313.1C172.57 311 175.98 311 178.08 313.1C189.65 324.67 220.57 355.59 232.14 367.16Z" id="aHh80sKF1"></path><path d="M273.34 386.44C273.34 389.4 270.93 391.81 267.96 391.81C265.35 391.81 262.9 391.81 260.29 391.81C257.32 391.81 254.92 389.4 254.92 386.43C254.92 370.07 254.92 326.34 254.92 309.97C254.92 307 257.33 304.6 260.3 304.6C262.91 304.6 265.36 304.6 267.97 304.6C270.93 304.6 273.34 307.01 273.34 309.97C273.34 326.34 273.34 370.07 273.34 386.44Z" id="i5elPxvxex"></path><path d="M319.03 322.47C319.03 325.44 316.62 327.84 313.65 327.84C311.04 327.84 308.59 327.84 305.98 327.84C303.01 327.84 300.61 325.43 300.61 322.47C300.61 306.1 300.61 262.37 300.61 246C300.61 243.04 303.02 240.63 305.99 240.63C308.6 240.63 311.05 240.63 313.66 240.63C316.63 240.63 319.03 243.04 319.03 246.01C319.03 262.37 319.03 306.1 319.03 322.47Z" id="d14Gd1uNtZ"></path><path d="M319.03 386.44C319.03 389.4 316.62 391.81 313.65 391.81C311.04 391.81 308.59 391.81 305.98 391.81C303.01 391.81 300.61 389.4 300.61 386.43C300.61 370.07 300.61 326.34 300.61 309.97C300.61 307 303.02 304.6 305.99 304.6C308.6 304.6 311.05 304.6 313.66 304.6C316.63 304.6 319.03 307.01 319.03 309.97C319.03 326.34 319.03 370.07 319.03 386.44Z" id="c1PmhnZJry"></path><path d="M382.44 240.63C385.41 240.63 387.82 243.04 387.82 246C387.82 248.61 387.82 251.06 387.82 253.67C387.82 256.64 385.41 259.05 382.44 259.05C366.08 259.05 322.35 259.05 305.98 259.05C303.01 259.05 300.61 256.64 300.61 253.67C300.61 251.06 300.61 248.61 300.61 246C300.61 243.04 303.01 240.63 305.98 240.63C322.35 240.63 366.08 240.63 382.44 240.63Z" id="adDMTPINu"></path><path d="M387.83 322.47C387.83 325.44 385.43 327.84 382.46 327.84C379.85 327.84 377.4 327.84 374.79 327.84C371.82 327.84 369.41 325.43 369.41 322.47C369.42 306.1 369.42 262.37 369.42 246C369.42 243.04 371.83 240.63 374.8 240.63C377.4 240.63 379.86 240.63 382.46 240.63C385.43 240.63 387.84 243.04 387.84 246.01C387.84 262.37 387.84 306.1 387.83 322.47Z" id="dHhslK4jg"></path><path d="M387.83 386.44C387.83 389.4 385.43 391.81 382.46 391.81C379.85 391.81 377.4 391.81 374.79 391.81C371.82 391.81 369.41 389.4 369.41 386.43C369.42 370.07 369.42 326.34 369.42 309.97C369.42 307 371.83 304.6 374.8 304.6C377.4 304.6 379.86 304.6 382.46 304.6C385.43 304.6 387.84 307.01 387.84 309.97C387.84 326.34 387.84 370.07 387.83 386.44Z" id="bDr761dHW"></path><path d="M382.44 308.9C385.41 308.9 387.82 311.31 387.82 314.27C387.82 316.88 387.82 319.33 387.82 321.94C387.82 324.91 385.41 327.32 382.44 327.32C366.08 327.32 322.35 327.32 305.98 327.32C303.01 327.32 300.61 324.91 300.61 321.94C300.61 319.33 300.61 316.88 300.61 314.27C300.61 311.31 303.01 308.9 305.98 308.9C322.35 308.9 366.08 308.9 382.44 308.9Z" id="b6w1fFgg5T"></path><path d="M412.02 322.47C412.02 325.44 409.62 327.84 406.65 327.84C404.04 327.84 401.59 327.84 398.98 327.84C396.01 327.84 393.6 325.43 393.6 322.47C393.61 306.1 393.61 262.37 393.61 246C393.61 243.04 396.02 240.63 398.99 240.63C401.59 240.63 404.05 240.63 406.65 240.63C409.62 240.63 412.03 243.04 412.03 246.01C412.03 262.37 412.03 306.1 412.02 322.47Z" id="c6P4sTKFbM"></path><path d="M412.02 386.44C412.02 389.4 409.62 391.81 406.65 391.81C404.04 391.81 401.59 391.81 398.98 391.81C396.01 391.81 393.6 389.4 393.6 386.43C393.61 370.07 393.61 326.34 393.61 309.97C393.61 307 396.02 304.6 398.99 304.6C401.59 304.6 404.05 304.6 406.65 304.6C409.62 304.6 412.03 307.01 412.03 309.97C412.03 326.34 412.03 370.07 412.02 386.44Z" id="b40pd1QZsP"></path><path d="M475.44 240.63C478.41 240.63 480.82 243.04 480.82 246C480.82 248.61 480.82 251.06 480.82 253.67C480.82 256.64 478.41 259.05 475.44 259.05C459.07 259.05 415.35 259.05 398.98 259.05C396.01 259.05 393.6 256.64 393.6 253.67C393.6 251.06 393.6 248.61 393.6 246C393.6 243.04 396.01 240.63 398.98 240.63C415.35 240.63 459.07 240.63 475.44 240.63Z" id="iOPtzBLj"></path><path d="M480.83 322.47C480.83 325.44 478.42 327.84 475.46 327.84C472.85 327.84 470.4 327.84 467.79 327.84C464.82 327.84 462.41 325.43 462.41 322.47C462.41 306.1 462.42 262.37 462.42 246C462.42 243.04 464.82 240.63 467.79 240.63C470.4 240.63 472.85 240.63 475.46 240.63C478.43 240.63 480.84 243.04 480.84 246.01C480.84 262.37 480.83 306.1 480.83 322.47Z" id="b1feXNYmiY"></path><path d="M475.44 309.44C478.41 309.44 480.82 311.84 480.82 314.81C480.82 317.42 480.82 319.87 480.82 322.48C480.82 325.45 478.41 327.86 475.44 327.86C459.07 327.86 415.35 327.86 398.98 327.86C396.01 327.86 393.6 325.45 393.6 322.48C393.6 319.87 393.6 317.42 393.6 314.81C393.6 311.84 396.01 309.44 398.98 309.44C415.35 309.44 459.07 309.44 475.44 309.44Z" id="aLP35l9ha"></path><path d="M462.22 367.16C464.31 369.26 464.31 372.66 462.22 374.76C460.37 376.61 458.64 378.34 456.79 380.19C454.69 382.28 451.29 382.28 449.19 380.19C437.62 368.61 406.7 337.69 395.12 326.12C393.03 324.02 393.03 320.62 395.12 318.52C396.97 316.67 398.7 314.94 400.55 313.1C402.65 311 406.05 311 408.15 313.1C419.72 324.67 450.64 355.59 462.22 367.16Z" id="b2WALBiycA"></path><path d="M566.44 240.63C569.41 240.63 571.82 243.04 571.82 246C571.82 248.61 571.82 251.06 571.82 253.67C571.82 256.64 569.41 259.05 566.44 259.05C550.07 259.05 506.35 259.05 489.98 259.05C487.01 259.05 484.6 256.64 484.6 253.67C484.6 251.06 484.6 248.61 484.6 246C484.6 243.04 487.01 240.63 489.98 240.63C506.35 240.63 550.07 240.63 566.44 240.63Z" id="a4pFiJN46"></path><path d="M536.02 322.47C536.02 325.44 533.62 327.84 530.65 327.84C528.04 327.84 525.59 327.84 522.98 327.84C520.01 327.84 517.6 325.43 517.6 322.47C517.61 306.1 517.61 262.37 517.61 246C517.61 243.04 520.02 240.63 522.99 240.63C525.59 240.63 528.05 240.63 530.65 240.63C533.62 240.63 536.03 243.04 536.03 246.01C536.03 262.37 536.03 306.1 536.02 322.47Z" id="b1FOxl67p"></path><path d="M536.02 386.44C536.02 389.4 533.62 391.81 530.65 391.81C528.04 391.81 525.59 391.81 522.98 391.81C520.01 391.81 517.6 389.4 517.6 386.43C517.61 370.07 517.61 326.34 517.61 309.97C517.61 307 520.02 304.6 522.99 304.6C525.59 304.6 528.05 304.6 530.65 304.6C533.62 304.6 536.03 307.01 536.03 309.97C536.03 326.34 536.03 370.07 536.02 386.44Z" id="dm1hxg5yD"></path><path d="M271.88 279.69C272.68 279.69 273.34 280.34 273.34 281.14C273.34 284.54 273.34 293.26 273.34 296.65C273.34 297.46 272.68 298.11 271.88 298.11C268.49 298.11 259.76 298.11 256.37 298.11C255.57 298.11 254.92 297.46 254.92 296.65C254.92 293.26 254.92 284.54 254.92 281.14C254.92 280.34 255.57 279.69 256.37 279.69C259.76 279.69 268.49 279.69 271.88 279.69Z" id="e8q3DSD9a"></path><path d="M48.42 410.7C48.42 413.67 46.02 416.07 43.05 416.07C40.44 416.07 37.99 416.07 35.38 416.07C32.41 416.07 30 413.67 30.01 410.7C30.01 371.77 30.02 260.35 30.02 221.42C30.02 218.45 32.42 216.04 35.39 216.04C38 216.04 40.45 216.04 43.06 216.04C46.03 216.04 48.44 218.45 48.44 221.42C48.43 260.35 48.43 371.77 48.42 410.7Z" id="a6V7fP2Ngu"></path><path d="M600.93 397.65C603.89 397.65 606.3 400.06 606.3 403.03C606.3 405.64 606.3 408.09 606.3 410.7C606.3 413.67 603.89 416.07 600.93 416.07C486.78 416.07 149.74 416.07 35.6 416.07C32.63 416.07 30.22 413.67 30.22 410.7C30.22 408.09 30.22 405.64 30.22 403.03C30.22 400.06 32.63 397.65 35.6 397.65C149.74 397.65 486.78 397.65 600.93 397.65Z" id="c2M0jGI0u"></path><path d="M606.29 410.7C606.29 413.67 603.88 416.07 600.91 416.07C598.3 416.07 595.85 416.07 593.24 416.07C590.27 416.07 587.87 413.67 587.87 410.7C587.87 371.77 587.88 260.35 587.88 221.42C587.88 218.45 590.29 216.04 593.26 216.04C595.87 216.04 598.32 216.04 600.93 216.04C603.89 216.04 606.3 218.45 606.3 221.42C606.3 260.35 606.29 371.77 606.29 410.7Z" id="b1LH0aVvQC"></path><path d="M600.93 215.65C603.89 215.65 606.3 218.06 606.3 221.03C606.3 223.64 606.3 226.09 606.3 228.7C606.3 231.67 603.89 234.07 600.93 234.07C486.78 234.07 149.74 234.07 35.6 234.07C32.63 234.07 30.22 231.67 30.22 228.7C30.22 226.09 30.22 223.64 30.22 221.03C30.22 218.06 32.63 215.65 35.6 215.65C149.74 215.65 486.78 215.65 600.93 215.65Z" id="aNwsGHy8V"></path></defs><g><g><g><use xlink:href="#a4YwP3O0R" opacity="1" fill="#b4b4b4" fill-opacity="1"></use></g><g><use xlink:href="#f1UElyg7ru" opacity="1" fill="#b4b4b4" fill-opacity="1"></use></g><g><use xlink:href="#b6qLZSl0as" opacity="1" fill="#b4b4b4" fill-opacity="1"></use></g><g><use xlink:href="#as8V8gJNX" opacity="1" fill="#b4b4b4" fill-opacity="1"></use></g><g><use xlink:href="#a16KdMyCAB" opacity="1" fill="#b4b4b4" fill-opacity="1"></use></g><g><use xlink:href="#b2Vgyk5yLO" opacity="1" fill="#b4b4b4" fill-opacity="1"></use></g><g><use xlink:href="#c3bvf3EHlg" opacity="1" fill="#b4b4b4" fill-opacity="1"></use></g><g><use xlink:href="#a2IWqjZog3" opacity="1" fill="#b4b4b4" fill-opacity="1"></use></g><g><use xlink:href="#eP3r9QgYE" opacity="1" fill="#b4b4b4" fill-opacity="1"></use></g><g><use xlink:href="#aHh80sKF1" opacity="1" fill="#b4b4b4" fill-opacity="1"></use></g><g><use xlink:href="#i5elPxvxex" opacity="1" fill="#b4b4b4" fill-opacity="1"></use></g><g><use xlink:href="#d14Gd1uNtZ" opacity="1" fill="#b4b4b4" fill-opacity="1"></use></g><g><use xlink:href="#c1PmhnZJry" opacity="1" fill="#b4b4b4" fill-opacity="1"></use></g><g><use xlink:href="#adDMTPINu" opacity="1" fill="#b4b4b4" fill-opacity="1"></use></g><g><use xlink:href="#dHhslK4jg" opacity="1" fill="#b4b4b4" fill-opacity="1"></use></g><g><use xlink:href="#bDr761dHW" opacity="1" fill="#b4b4b4" fill-opacity="1"></use></g><g><use xlink:href="#b6w1fFgg5T" opacity="1" fill="#b4b4b4" fill-opacity="1"></use></g><g><use xlink:href="#c6P4sTKFbM" opacity="1" fill="#b4b4b4" fill-opacity="1"></use></g><g><use xlink:href="#b40pd1QZsP" opacity="1" fill="#b4b4b4" fill-opacity="1"></use></g><g><use xlink:href="#iOPtzBLj" opacity="1" fill="#b4b4b4" fill-opacity="1"></use></g><g><use xlink:href="#b1feXNYmiY" opacity="1" fill="#b4b4b4" fill-opacity="1"></use></g><g><use xlink:href="#aLP35l9ha" opacity="1" fill="#b4b4b4" fill-opacity="1"></use></g><g><use xlink:href="#b2WALBiycA" opacity="1" fill="#b4b4b4" fill-opacity="1"></use></g><g><use xlink:href="#a4pFiJN46" opacity="1" fill="#b4b4b4" fill-opacity="1"></use></g><g><use xlink:href="#b1FOxl67p" opacity="1" fill="#b4b4b4" fill-opacity="1"></use></g><g><use xlink:href="#dm1hxg5yD" opacity="1" fill="#b4b4b4" fill-opacity="1"></use></g><g><use xlink:href="#e8q3DSD9a" opacity="1" fill="#b4b4b4" fill-opacity="1"></use></g><g><use xlink:href="#a6V7fP2Ngu" opacity="1" fill="#b4b4b4" fill-opacity="1"></use></g><g><use xlink:href="#c2M0jGI0u" opacity="1" fill="#b4b4b4" fill-opacity="1"></use></g><g><use xlink:href="#b1LH0aVvQC" opacity="1" fill="#b4b4b4" fill-opacity="1"></use></g><g><use xlink:href="#aNwsGHy8V" opacity="1" fill="#b4b4b4" fill-opacity="1"></use></g></g></g></svg>