<?xml version="1.0" encoding="UTF-8" standalone="no"?>
<!DOCTYPE svg PUBLIC "-//W3C//DTD SVG 1.1//EN" "http://www.w3.org/Graphics/SVG/1.1/DTD/svg11.dtd">
<svg version="1.1" xmlns="http://www.w3.org/2000/svg" xmlns:xlink="http://www.w3.org/1999/xlink" preserveAspectRatio="xMidYMid meet" viewBox="0 0 30 30" width="30" height="30"><defs><path d="M29.88 15.01C29.88 23.29 23.15 30.02 14.87 30.02C6.59 30.02 -0.14 23.29 -0.14 15.01C-0.14 6.73 6.59 0 14.87 0C23.15 0 29.88 6.73 29.88 15.01Z" id="b87QG2vyc"></path><path d="M20.17 1.81L21.36 2.34L22.49 2.98L23.56 3.72L24.55 4.55L25.46 5.46L26.29 6.45L27.02 7.51L27.66 8.64L28.2 9.83L28.63 11.08L28.94 12.37L29.13 13.71L29.2 15.09L29.13 16.46L28.94 17.8L28.63 19.09L28.2 20.34L27.66 21.53L27.02 22.66L26.29 23.72L25.46 24.71L24.55 25.62L23.56 26.45L22.49 27.19L21.36 27.83L20.17 28.36L18.93 28.79L17.63 29.1L16.29 29.3L14.92 29.36L13.55 29.3L12.21 29.1L10.91 28.79L9.67 28.36L8.48 27.83L7.35 27.19L6.28 26.45L5.29 25.62L4.38 24.71L3.55 23.72L2.82 22.66L2.18 21.53L1.64 20.34L1.21 19.09L0.9 17.8L0.71 16.46L0.64 15.09L0.71 13.71L0.9 12.37L1.21 11.08L1.64 9.83L2.18 8.64L2.82 7.51L3.55 6.45L4.38 5.46L5.29 4.55L6.28 3.72L7.35 2.98L8.48 2.34L9.67 1.81L10.91 1.38L12.21 1.07L13.55 0.87L14.92 0.81L16.29 0.87L17.63 1.07L18.93 1.38L18.93 1.38L20.17 1.81ZM9.78 2.92L8.63 3.47L7.54 4.14L6.52 4.9L5.58 5.75L4.73 6.69L3.97 7.7L3.31 8.79L2.75 9.95L2.31 11.16L1.98 12.43L1.78 13.74L1.71 15.09L1.78 16.43L1.98 17.75L2.31 19.01L2.75 20.22L3.31 21.38L3.97 22.47L4.73 23.48L5.58 24.42L6.52 25.27L7.54 26.03L8.63 26.7L9.78 27.25L10.99 27.7L12.26 28.02L13.57 28.22L14.92 28.29L16.27 28.22L17.58 28.02L18.85 27.7L20.06 27.25L21.21 26.7L22.3 26.03L23.32 25.27L24.26 24.42L25.11 23.48L25.87 22.47L26.53 21.38L27.09 20.22L27.53 19.01L27.86 17.75L28.06 16.43L28.13 15.09L28.06 13.74L27.86 12.43L27.53 11.16L27.09 9.95L26.53 8.79L25.87 7.7L25.11 6.69L24.26 5.75L23.32 4.9L22.3 4.14L21.21 3.47L20.06 2.92L18.85 2.47L17.58 2.15L16.27 1.95L14.92 1.88L13.57 1.95L12.26 2.15L10.99 2.47L10.99 2.47L9.78 2.92Z" id="bMTaZgp0H"></path><path d="M17.51 7.44L20.29 13L14.73 13L9.17 13L11.95 7.44L14.73 1.88L17.51 7.44Z" id="lQda9m3QP"></path><path d="M14 4.68L15.84 4.68L15.84 29.36L14 29.36L14 4.68Z" id="awEJItWzK"></path></defs><g><g><g><use xlink:href="#b87QG2vyc" opacity="1" fill="#ffb164" fill-opacity="1"></use></g><g><use xlink:href="#bMTaZgp0H" opacity="1" fill="#ffffff" fill-opacity="1"></use></g><g><use xlink:href="#lQda9m3QP" opacity="1" fill="#ffffff" fill-opacity="1"></use></g><g><use xlink:href="#awEJItWzK" opacity="1" fill="#ffffff" fill-opacity="1"></use></g></g></g></svg>