<?xml version="1.0" encoding="UTF-8" standalone="no"?>
<!DOCTYPE svg PUBLIC "-//W3C//DTD SVG 1.1//EN" "http://www.w3.org/Graphics/SVG/1.1/DTD/svg11.dtd">
<svg version="1.1" xmlns="http://www.w3.org/2000/svg" xmlns:xlink="http://www.w3.org/1999/xlink" preserveAspectRatio="xMidYMid meet" viewBox="0 0 30 30" width="30" height="30"><defs><path d="M-3.29 -2.49L30 -2.49L30 30L-3.29 30L-3.29 -2.49Z" id="a2hzWJtb7U"></path><path d="M20.23 0.94L21.43 1.45L22.57 2.05L23.65 2.75L24.66 3.53L25.6 4.4L26.47 5.34L27.25 6.35L27.95 7.43L28.55 8.57L29.06 9.77L29.46 11.01L29.76 12.31L29.94 13.64L30 15L29.94 16.36L29.76 17.69L29.46 18.99L29.06 20.23L28.55 21.43L27.95 22.57L27.25 23.65L26.47 24.66L25.6 25.6L24.66 26.47L23.65 27.25L22.57 27.95L21.43 28.55L20.23 29.06L18.99 29.46L17.69 29.76L16.36 29.94L15 30L13.64 29.94L12.31 29.76L11.01 29.46L9.77 29.06L8.57 28.55L7.43 27.95L6.35 27.25L5.34 26.47L4.4 25.6L3.53 24.66L2.75 23.65L2.05 22.57L1.45 21.43L0.94 20.23L0.54 18.99L0.24 17.69L0.06 16.36L0 15L0.06 13.64L0.24 12.31L0.54 11.01L0.94 9.77L1.45 8.57L2.05 7.43L2.75 6.35L3.53 5.34L4.4 4.4L5.34 3.53L6.35 2.75L7.43 2.05L8.57 1.45L9.77 0.94L11.01 0.54L12.31 0.24L13.64 0.06L15 0L16.36 0.06L17.69 0.24L18.99 0.54L18.99 0.54L20.23 0.94ZM9.9 2.1L8.74 2.62L7.64 3.24L6.61 3.95L5.64 4.76L4.76 5.64L3.95 6.61L3.24 7.64L2.62 8.74L2.1 9.9L1.68 11.11L1.38 12.36L1.19 13.66L1.13 15L1.19 16.34L1.38 17.64L1.68 18.89L2.1 20.1L2.62 21.26L3.24 22.36L3.95 23.39L4.76 24.36L5.64 25.24L6.61 26.05L7.64 26.76L8.74 27.38L9.9 27.9L11.11 28.32L12.36 28.62L13.66 28.81L15 28.88L16.34 28.81L17.64 28.62L18.89 28.32L20.1 27.9L21.26 27.38L22.36 26.76L23.39 26.05L24.36 25.24L25.24 24.36L26.05 23.39L26.76 22.36L27.38 21.26L27.9 20.1L28.32 18.89L28.62 17.64L28.81 16.34L28.87 15L28.81 13.66L28.62 12.36L28.32 11.11L27.9 9.9L27.38 8.74L26.76 7.64L26.05 6.61L25.24 5.64L24.36 4.76L23.39 3.95L22.36 3.24L21.26 2.62L20.1 2.1L18.89 1.68L17.64 1.38L16.34 1.19L15 1.13L13.66 1.19L12.36 1.38L11.11 1.68L11.11 1.68L9.9 2.1Z" id="a34PUtNpHb"></path><path d="M17.73 6.97L20.65 12.81L14.8 12.81L8.96 12.81L11.88 6.97L14.8 1.13L17.73 6.97Z" id="b3lGDRpus"></path><path d="M14.03 4.06L15.97 4.06L15.97 30L14.03 30L14.03 4.06Z" id="b8Yu5ghLQQ"></path></defs><g><g><g><use xlink:href="#a2hzWJtb7U" opacity="1" fill="#ffffff" fill-opacity="1"></use></g><g><use xlink:href="#a34PUtNpHb" opacity="1" fill="#ffb164" fill-opacity="1"></use></g><g><use xlink:href="#b3lGDRpus" opacity="1" fill="#ffb164" fill-opacity="1"></use></g><g><use xlink:href="#b8Yu5ghLQQ" opacity="1" fill="#ffb164" fill-opacity="1"></use></g></g></g></svg>