<?xml version="1.0" encoding="UTF-8" standalone="no"?>
<!DOCTYPE svg PUBLIC "-//W3C//DTD SVG 1.1//EN" "http://www.w3.org/Graphics/SVG/1.1/DTD/svg11.dtd">
<svg version="1.1" xmlns="http://www.w3.org/2000/svg" xmlns:xlink="http://www.w3.org/1999/xlink" preserveAspectRatio="xMidYMid meet" viewBox="0 0 30 30" width="30" height="30"><defs><path d="M30 11.5C30 17.85 23.61 23.01 15.73 23.01C7.86 23.01 1.47 17.85 1.47 11.5C1.47 5.15 7.86 0 15.73 0C23.61 0 30 5.15 30 11.5Z" id="h49iCc1Qk"></path><path d="M14.5 20.42L0 30L10.84 17.3L14.5 20.42Z" id="chIMGkp46"></path><path d="M28.85 11.5C28.85 17.34 22.97 22.08 15.73 22.08C8.5 22.08 2.62 17.34 2.62 11.5C2.62 5.67 8.5 0.93 15.73 0.93C22.97 0.93 28.85 5.67 28.85 11.5Z" id="f2V2bpS69x"></path></defs><g><g><g><use xlink:href="#h49iCc1Qk" opacity="1" fill="#ffb164" fill-opacity="1"></use></g><g><use xlink:href="#chIMGkp46" opacity="1" fill="#ffb164" fill-opacity="1"></use></g><g><use xlink:href="#f2V2bpS69x" opacity="1" fill="#ffffff" fill-opacity="1"></use></g></g></g></svg>