<?xml version="1.0" encoding="UTF-8" standalone="no"?>
<!DOCTYPE svg PUBLIC "-//W3C//DTD SVG 1.1//EN" "http://www.w3.org/Graphics/SVG/1.1/DTD/svg11.dtd">
<svg version="1.1" xmlns="http://www.w3.org/2000/svg" xmlns:xlink="http://www.w3.org/1999/xlink" preserveAspectRatio="xMidYMid meet" viewBox="0 0 1920 1080" width="1920" height="1080"><defs><path d="M942.7 -297.73L13.35 1567.83L-122.7 1500.05L806.65 -365.51L942.7 -297.73Z" id="aPmtTv1SU"></path><path d="M1052.43 540L1144.85 724.85L960 724.85L775.15 724.85L867.57 540L960 355.15L1052.43 540Z" id="cFCfRLUwp"></path><path d="M1027.05 -122.65L478.09 973.78L342.17 905.73L891.13 -190.7L1027.05 -122.65Z" id="b1ThhQfgRb"></path><path d="M531.6 -153.27L-17.37 943.15L-153.28 875.1L395.68 -221.33L531.6 -153.27Z" id="h5Wqb4yuSN"></path><path d="M1287.53 874.32L-537.21 874.32L-537.21 722.32L1287.53 722.32L1287.53 874.32Z" id="ce6ita78I"></path><path d="M1393.58 1026.32L-1042.11 1026.32L-1042.11 874.32L1393.58 874.32L1393.58 1026.32Z" id="c2TAJT0fuj"></path><path d="M1010.67 124.42L1653.57 1388.38L1518.09 1457.29L875.19 193.33L1010.67 124.42Z" id="b4lKztbhag"></path><path d="M647.53 -46.68L197.44 856.53L61.39 788.73L511.49 -114.48L647.53 -46.68Z" id="ekiq3EjXY"></path><path d="M1929.76 1928.44L982.6 71.86L1117.99 2.78L2065.16 1859.36L1929.76 1928.44Z" id="a2QcI2pdp3"></path><path d="M1164.8 -56.13L714.71 847.08L576.66 778.29L1026.76 -124.92L1164.8 -56.13Z" id="a1K17oYEgB"></path><path d="M1042.11 874.32L-1042.11 874.32L-1042.11 722.32L1042.11 722.32L1042.11 874.32Z" id="b5052Ankn"></path><path d="M1192.21 -181.85L1909.79 1221.51L1774.46 1290.71L1056.88 -112.65L1192.21 -181.85Z" id="a1xu8dNdT"></path><path d="M-49.2 1026.32L1368.87 1026.32L1368.87 1178.32L-49.2 1178.32L-49.2 1026.32Z" id="dgpBkgzbF"></path><path d="M483.5 -398.53L-445.85 1467.03L-581.9 1399.25L347.45 -466.31L483.5 -398.53Z" id="b1h7o503p"></path><path d="M272.98 -315.77L-177.11 587.43L-313.15 519.64L136.94 -383.57L272.98 -315.77Z" id="h15TNcvXdl"></path><path d="M1395.22 -112L2038.12 1151.96L1902.64 1220.87L1259.73 -43.09L1395.22 -112Z" id="dBefCOC0q"></path><path d="M2304.89 1696.73L1357.72 -159.84L1493.12 -228.92L2440.28 1627.66L2304.89 1696.73Z" id="a1U1MYrJFg"></path><path d="M1607.88 -333.55L2325.46 1069.81L2190.12 1139.01L1472.54 -264.35L1607.88 -333.55Z" id="bfwGxXo0x"></path><path d="M1774.31 -338.25L2417.21 925.71L2281.73 994.62L1638.83 -269.34L1774.31 -338.25Z" id="fnN1onO4m"></path></defs><g><g><g><use xlink:href="#aPmtTv1SU" opacity="1" fill="#ffe700" fill-opacity="1"></use></g><g><use xlink:href="#cFCfRLUwp" opacity="1" fill="#a8a8a8" fill-opacity="1"></use></g><g><use xlink:href="#b1ThhQfgRb" opacity="1" fill="#ff0093" fill-opacity="1"></use></g><g><use xlink:href="#h5Wqb4yuSN" opacity="1" fill="#ff0093" fill-opacity="1"></use></g><g><use xlink:href="#ce6ita78I" opacity="1" fill="#ffe700" fill-opacity="1"></use></g><g><use xlink:href="#c2TAJT0fuj" opacity="1" fill="#00fffc" fill-opacity="1"></use></g><g><use xlink:href="#b4lKztbhag" opacity="1" fill="#ff0093" fill-opacity="1"></use></g><g><use xlink:href="#ekiq3EjXY" opacity="1" fill="#00fffc" fill-opacity="1"></use></g><g><use xlink:href="#a2QcI2pdp3" opacity="1" fill="#ffe700" fill-opacity="1"></use></g><g><use xlink:href="#a1K17oYEgB" opacity="1" fill="#00fffc" fill-opacity="1"></use></g><g><use xlink:href="#b5052Ankn" opacity="1" fill="#ffe700" fill-opacity="1"></use></g><g><use xlink:href="#a1xu8dNdT" opacity="1" fill="#00fffc" fill-opacity="1"></use></g><g><use xlink:href="#dgpBkgzbF" opacity="1" fill="#ff0093" fill-opacity="1"></use></g><g><use xlink:href="#b1h7o503p" opacity="1" fill="#ffe700" fill-opacity="1"></use></g><g><use xlink:href="#h15TNcvXdl" opacity="1" fill="#00fffc" fill-opacity="1"></use></g><g><use xlink:href="#dBefCOC0q" opacity="1" fill="#ff0093" fill-opacity="1"></use></g><g><use xlink:href="#a1U1MYrJFg" opacity="1" fill="#ffe700" fill-opacity="1"></use></g><g><use xlink:href="#bfwGxXo0x" opacity="1" fill="#00fffc" fill-opacity="1"></use></g><g><use xlink:href="#fnN1onO4m" opacity="1" fill="#ff0093" fill-opacity="1"></use></g></g></g></svg>